<?xml version="1.0" encoding="UTF-8"?>
<svg width="26px" height="26px" viewBox="0 0 26 26" version="1.1" xmlns="http://www.w3.org/2000/svg" xmlns:xlink="http://www.w3.org/1999/xlink">
    <title>kuang-active</title>
    <g id="页面-1" stroke="none" stroke-width="1" fill="none" fill-rule="evenodd">
        <g id="注册" transform="translate(-643.000000, -363.000000)" fill="#2B5182" fill-rule="nonzero">
            <g id="框-2" transform="translate(643.000000, 363.000000)">
                <path d="M4.45314244,19.2252173 L13.003,24.0058324 L21.1016881,19.5436481 C22.021664,19.0367633 23.1670637,19.3300425 23.7359266,20.1924059 L23.8168318,20.3259996 L13.9687355,25.7524237 C13.3639992,26.0856409 12.6301579,26.0833666 12.0274987,25.7464073 L1.73317124,19.9906357 C2.27382734,19.0293427 3.49050319,18.6869618 4.45314244,19.2252173 Z M13.9700853,0.250278531 L23.9700853,5.79685248 C24.6056877,6.14939405 25,6.81900753 25,7.54583349 L25,17.4875027 C23.8954035,17.4875027 22.9999254,16.5920992 22.9998334,15.4875027 L22.9991712,7.54042764 L12.9991712,1.99280065 L2.99917124,7.54042764 L2.99981991,14.7440282 C2.99991484,15.798295 2.18418829,16.662094 1.14942849,16.7385295 L1,16.7440282 L1,7.54583349 C1,6.81900753 1.39431234,6.14939405 2.02991475,5.79685248 L12.0299147,0.250278531 C12.6333358,-0.0844134454 13.3666642,-0.0844134454 13.9700853,0.250278531 Z" id="kuang-active"></path>
            </g>
        </g>
    </g>
</svg>