<?xml version="1.0" encoding="UTF-8"?>
<svg width="26px" height="26px" viewBox="0 0 26 26" version="1.1" xmlns="http://www.w3.org/2000/svg" xmlns:xlink="http://www.w3.org/1999/xlink">
    <title>kuang</title>
    <defs>
        <linearGradient x1="50%" y1="42.8384172%" x2="50%" y2="100%" id="linearGradient-1">
            <stop stop-color="#8693A3" offset="0%"></stop>
            <stop stop-color="#4E5A6A" offset="100%"></stop>
        </linearGradient>
    </defs>
    <g id="页面-1" stroke="none" stroke-width="1" fill="none" fill-rule="evenodd">
        <g id="注册" transform="translate(-723.000000, -363.000000)" fill-rule="nonzero">
            <g id="kuang" transform="translate(723.000000, 363.000000)">
                <path d="M2.02057818,6.16680347 L12.0205782,0.550111105 C12.6288371,0.208470757 13.3711629,0.208470757 13.9794218,0.550111105 L23.9794218,6.16680347 C24.6097932,6.52086369 25,7.1875748 25,7.91057321 L25,18 L25,18 C23.8954039,18 22.9999263,17.1045961 22.9998354,16 L22.9991712,7.92717642 L22.9991712,7.92717642 L12.9991712,2.3094177 L2.99917124,7.92717642 L2.99982215,15.2471266 C2.99992037,16.3515979 2.10464911,17.2470284 1.00017783,17.2471266 C1.00011855,17.2471266 1.00005928,17.2471266 1,17.2471266 L1,17.2471266 L1,17.2471266 L1,7.91057321 C1,7.1875748 1.3902068,6.52086369 2.02057818,6.16680347 Z" id="路径-3" fill="url(#linearGradient-1)"></path>
                <path d="M4.70894469,18.9690195 L13.2271348,23.7281267 L13.2271348,23.7281267 L21.2958817,19.2859872 C22.2579781,18.7563181 23.4672558,19.104763 24,20.06516 L24,20.06516 L24,20.06516 L14.1922997,25.4650125 C13.5878731,25.7977933 12.8546007,25.7955216 12.2522475,25.4590023 L2,19.7313332 L2,19.7313332 C2.53871501,18.7742559 3.75016084,18.4333476 4.70894469,18.9690195 Z" id="路径-4" fill="#959FAC"></path>
            </g>
        </g>
    </g>
</svg>